<svg width="56" height="42" viewBox="0 0 56 42" fill="none" xmlns="http://www.w3.org/2000/svg">
<path fill-rule="evenodd" clip-rule="evenodd" d="M54.4444 38.111C54.4444 36.8224 53.703 35.7777 52.7885 35.7777H21.8781C20.9636 35.7777 20.2222 36.8224 20.2222 38.111C20.2222 39.3997 20.9636 40.4444 21.8781 40.4444H52.7885C53.703 40.4444 54.4444 39.3997 54.4444 38.111Z" fill="#F8F7F9"/>
<path fill-rule="evenodd" clip-rule="evenodd" d="M54.4445 26.4445C54.4445 24.7263 53.2987 23.3334 51.8854 23.3334H4.1148C2.70144 23.3334 1.55566 24.7263 1.55566 26.4445C1.55566 28.1626 2.70144 29.5556 4.1148 29.5556H51.8854C53.2987 29.5556 54.4445 28.1626 54.4445 26.4445Z" fill="#F8F7F9"/>
<path fill-rule="evenodd" clip-rule="evenodd" d="M54.4445 13.9999C54.4445 12.2817 53.2987 10.8888 51.8854 10.8888H4.1148C2.70144 10.8888 1.55566 12.2817 1.55566 13.9999C1.55566 15.7181 2.70144 17.111 4.1148 17.111H51.8854C53.2987 17.111 54.4445 15.7181 54.4445 13.9999Z" fill="#D55672"/>
<path fill-rule="evenodd" clip-rule="evenodd" d="M35.7779 2.33333C35.7779 1.04468 35.0365 0 34.122 0H3.21158C2.29705 0 1.55566 1.04468 1.55566 2.33333C1.55566 3.62199 2.29705 4.66667 3.21158 4.66667H34.122C35.0365 4.66667 35.7779 3.62199 35.7779 2.33333Z" fill="#F8F7F9"/>
</svg>
