<svg width="1440" height="417" viewBox="0 0 1440 417" fill="none" xmlns="http://www.w3.org/2000/svg">
<path d="M73.3266 366.28L-59.8241 285.689V188.98L73.3266 109.323V193.185L-6.56381 238.035L73.3266 282.653V366.28ZM92.4816 413L188.257 0.232924H273.286L177.278 413H92.4816ZM297.814 413V1.86811H379.573V148.801H418.35V1.86811H500.11V413H418.35V226.589H379.573V413H297.814ZM636.998 416.738C567.23 416.738 532.346 380.53 532.346 308.115V167.489C532.346 134.474 541.612 108.155 560.144 88.5328C578.676 68.7549 604.294 58.8659 636.998 58.8659C669.857 58.8659 695.553 68.7549 714.085 88.5328C732.617 108.155 741.883 134.474 741.883 167.489V308.115C741.883 380.53 706.921 416.738 636.998 416.738ZM636.998 352.265C644.006 352.265 648.989 349.773 651.948 344.789C655.063 339.65 656.62 333.187 656.62 325.401V154.174C656.62 133.773 650.079 123.572 636.998 123.572C623.916 123.572 617.376 133.773 617.376 154.174V325.401C617.376 333.187 618.855 339.65 621.814 344.789C624.929 349.773 629.99 352.265 636.998 352.265ZM772.952 413V62.6035H854.711V103.249C858.448 88.9222 864.833 77.9431 873.866 70.3122C882.898 62.6814 896.135 58.8659 913.577 58.8659C927.593 58.8659 939.507 62.1363 949.318 68.677C959.285 75.062 966.293 83.5494 970.342 94.1392C976.727 82.615 984.202 73.8941 992.767 67.9762C1001.49 61.9027 1013.87 58.8659 1029.91 58.8659C1049.38 58.8659 1064.33 63.0707 1074.76 71.4802C1085.35 79.734 1092.67 91.2581 1096.72 106.053C1100.92 120.691 1103.03 137.666 1103.03 156.977V413H1019.63V155.575C1019.63 132.994 1013.87 121.704 1002.34 121.704C996.271 121.704 991.599 123.806 988.329 128.011C985.058 132.06 982.8 137.121 981.554 143.195C980.308 149.268 979.686 155.342 979.686 161.415V413H896.291V155.575C896.291 148.256 895.357 140.937 893.488 133.617C891.775 126.298 887.259 122.638 879.939 122.638C873.71 122.638 868.882 124.896 865.456 129.412C862.03 133.929 859.694 139.535 858.448 146.231C857.202 152.772 856.58 159.235 856.58 165.62V413H772.952ZM1234.07 416.738C1209.16 416.738 1189.3 412.066 1174.51 402.722C1159.71 393.378 1149.12 379.907 1142.74 362.309C1136.35 344.712 1133.16 323.532 1133.16 298.771V157.911C1133.16 125.363 1142.5 100.758 1161.19 84.0945C1179.88 67.2755 1205.57 58.8659 1238.28 58.8659C1305.55 58.8659 1339.19 91.8811 1339.19 157.911V183.373C1339.19 214.208 1338.88 234.921 1338.26 245.51H1216.79V313.254C1216.79 319.483 1217.18 325.634 1217.96 331.708C1218.73 337.626 1220.45 342.531 1223.09 346.425C1225.9 350.318 1230.34 352.265 1236.41 352.265C1245.13 352.265 1250.58 348.527 1252.76 341.052C1254.94 333.421 1256.03 323.532 1256.03 311.385V277.747H1339.19V297.603C1339.19 323.766 1335.92 345.724 1329.38 363.477C1323 381.075 1312.09 394.39 1296.68 403.422C1281.42 412.299 1260.55 416.738 1234.07 416.738ZM1216.32 203.93H1256.03V156.743C1256.03 144.129 1254.47 135.097 1251.36 129.646C1248.24 124.04 1243.57 121.237 1237.34 121.237C1230.65 121.237 1225.43 123.884 1221.69 129.179C1218.11 134.474 1216.32 143.662 1216.32 156.743V203.93ZM1365.12 366.28V282.653L1445.01 238.035L1365.12 193.185V109.323L1498.27 188.98V285.689L1365.12 366.28Z" fill="white" fill-opacity="0.08"/>
</svg>
